<svg xmlns="http://www.w3.org/2000/svg" viewBox="0 0 32 32" fill="none">
  <rect width="32" height="32" rx="8" fill="#2a231c"/>
  <path d="M16 21.5c-3.4 0-6.2-2.5-6.8-5.7a.5.5 0 0 1 .98-.2c.5 2.4 2.8 4.4 5.82 4.4s5.32-2 5.82-4.4a.5.5 0 0 1 .98.2c-.6 3.2-3.4 5.7-6.8 5.7Z" fill="#7a8f72"/>
  <path d="M16 18c-2.5 0-4.5-1.8-4.95-4.15a.45.45 0 0 1 .88-.16c.35 1.55 1.9 2.8 4.07 2.8s3.72-1.25 4.07-2.8a.45.45 0 0 1 .88.16C20.5 16.2 18.5 18 16 18Z" fill="#9eb892"/>
  <path d="M16 14.5c-1.5 0-2.75-1.1-3-2.55a.4.4 0 0 1 .78-.14c.15.7.85 1.4 2.22 1.4s2.07-.7 2.22-1.4a.4.4 0 0 1 .78.14c-.25 1.45-1.5 2.55-3 2.55Z" fill="#b8c9ae"/>
</svg>
