<svg xmlns="http://www.w3.org/2000/svg" viewBox="0 0 80 80" fill="none" aria-hidden="true">
  <rect width="80" height="80" rx="18" fill="#343b44"/>
  <path d="M40 52c-8.5 0-15.5-6.2-17-14.2a1.2 1.2 0 0 1 2.35-.5C26.5 43.4 32.4 48.6 40 48.6s13.5-5.2 14.65-11.3a1.2 1.2 0 0 1 2.35.5C55.5 45.8 48.5 52 40 52Z" fill="#8eb3a8"/>
  <path d="M40 44c-6.2 0-11.3-4.5-12.4-10.4a1.1 1.1 0 0 1 2.15-.4C30.6 37.6 34.8 41 40 41s9.4-3.4 10.25-7.8a1.1 1.1 0 0 1 2.15.4C51.3 39.5 46.2 44 40 44Z" fill="#7d968c"/>
  <path d="M40 36c-3.8 0-6.9-2.8-7.6-6.4a1 1 0 0 1 1.96-.35C35.1 31.8 37.3 33.4 40 33.4s4.9-1.6 5.64-4.35a1 1 0 0 1 1.96.35C46.9 33.2 43.8 36 40 36Z" fill="#a8c4b8"/>
  <circle cx="40" cy="40" r="36" stroke="#5d7a72" stroke-opacity="0.35" stroke-width="1.5"/>
</svg>
